<svg 
    version="1.0" 
    xmlns="http://www.w3.org/2000/svg"
    width="158.000000pt" 
    height="256.000000pt" 
    viewBox="0 0 158.000000 256.000000"
    preserveAspectRatio="xMidYMid meet">

    <g 
        transform="translate(0.000000,256.000000) scale(0.100000,-0.100000)"
        fill="currenColor" 
        stroke="none"
    >
        <path d="M369 2526 c-8 -7 -34 -21 -59 -30 -53 -21 -70 -33 -70 -52 0 -8 -18
        -32 -40 -55 -30 -31 -37 -45 -31 -58 5 -9 8 -30 5 -46 -11 -86 -17 -111 -29
        -120 -6 -6 -15 -20 -19 -33 -4 -12 -14 -22 -22 -22 -8 0 -14 -4 -14 -9 0 -4
        -11 -20 -25 -35 -30 -32 -32 -60 -6 -83 19 -16 19 -16 -1 -44 -25 -34 -18 -96
        12 -107 21 -8 40 -40 125 -210 58 -115 77 -136 158 -178 21 -10 43 -27 48 -36
        5 -10 16 -18 23 -18 25 0 35 -83 34 -290 0 -113 4 -216 9 -230 6 -15 7 -62 2
        -115 -4 -51 -3 -97 2 -107 5 -9 9 -35 9 -57 0 -52 8 -71 30 -71 18 0 30 -19
        30 -48 0 -9 6 -28 13 -42 6 -14 11 -39 9 -56 -2 -25 -7 -31 -21 -27 -10 3 -22
        0 -25 -6 -5 -7 3 -11 18 -11 19 0 26 -5 26 -20 0 -11 6 -23 14 -26 20 -8 8
        -34 -15 -34 -10 0 -19 -7 -19 -15 0 -8 5 -15 10 -15 6 0 10 5 10 10 0 20 18 9
        39 -23 50 -76 66 -92 90 -89 13 2 28 -2 35 -8 8 -10 4 -11 -19 -6 -24 6 -28 5
        -17 -5 17 -18 15 -29 -5 -22 -13 4 -15 3 -8 -5 13 -14 89 4 79 19 -7 12 15 41
        27 33 15 -9 10 13 -6 26 -17 14 -20 46 -5 55 6 3 10 17 10 29 0 13 7 29 15 36
        21 17 19 37 -4 45 -10 3 -27 15 -37 26 -18 20 -18 21 3 39 15 12 23 30 24 59
        3 36 6 40 22 35 14 -4 18 -2 15 7 -3 8 -14 13 -25 11 -12 -2 -23 4 -27 15 -3
        10 -9 23 -12 30 -3 8 7 10 35 6 l40 -5 3 38 c2 31 7 39 23 39 91 2 132 45 102
        107 -9 18 -25 39 -36 46 -34 20 -24 32 14 16 37 -15 83 -18 102 -6 6 4 23 30
        38 57 97 182 99 188 91 234 -6 39 -4 44 31 76 21 19 45 35 54 35 9 0 22 7 29
        15 7 8 27 15 44 15 32 0 76 33 76 58 0 6 9 27 19 45 17 31 39 138 32 161 -7
        28 -1 111 8 114 6 2 19 18 28 35 9 18 30 50 48 72 38 47 49 93 35 146 -9 31
        -16 39 -33 39 -13 0 -47 20 -76 45 -38 33 -61 45 -80 44 -45 -4 -111 13 -121
        31 -5 9 -30 25 -55 35 l-47 17 -27 -26 c-15 -14 -31 -26 -36 -26 -5 0 1 9 13
        20 33 31 28 50 -13 50 -28 0 -37 -5 -44 -24 -5 -13 -17 -26 -25 -29 -14 -6
        -14 -3 1 21 9 15 28 40 41 56 23 28 23 29 3 47 -10 10 -22 33 -26 50 -13 57
        -73 100 -144 102 -30 1 -54 9 -65 20 -10 9 -22 17 -27 17 -5 0 -9 6 -9 13 0
        19 -44 59 -61 55 -9 -2 -13 4 -11 19 2 17 -3 24 -23 29 -17 4 -24 11 -21 20 7
        19 -18 18 -61 -2 -25 -13 -37 -14 -46 -5 -6 6 -28 11 -49 11 -25 0 -41 5 -44
        15 -4 8 -12 15 -19 15 -7 0 -15 7 -19 15 -3 8 -10 15 -15 15 -6 0 -8 -6 -5
        -13 3 -8 -7 -19 -22 -26 -33 -15 -42 -7 -20 18 20 22 7 37 -15 17z"/>
        <path d="M710 2464 c0 -8 5 -12 10 -9 6 3 10 10 10 16 0 5 -4 9 -10 9 -5 0
        -10 -7 -10 -16z"/>
        <path d="M493 479 c2 -13 9 -25 16 -27 8 -3 12 4 9 19 -1 12 -9 24 -16 27 -8
        2 -11 -4 -9 -19z"/>
        <path d="M520 391 c0 -6 5 -13 10 -16 6 -3 10 1 10 9 0 9 -4 16 -10 16 -5 0
        -10 -4 -10 -9z"/>
        <path d="M535 270 c3 -5 8 -10 11 -10 2 0 4 5 4 10 0 6 -5 10 -11 10 -5 0 -7
        -4 -4 -10z"/>
        <path d="M1020 149 c0 -5 5 -7 10 -4 6 3 10 8 10 11 0 2 -4 4 -10 4 -5 0 -10
        -5 -10 -11z"/>
        <path d="M1050 139 c0 -5 5 -7 10 -4 6 3 10 8 10 11 0 2 -4 4 -10 4 -5 0 -10
        -5 -10 -11z"/>
        <path d="M630 100 c0 -5 7 -10 16 -10 8 0 12 5 9 10 -3 6 -10 10 -16 10 -5 0
        -9 -4 -9 -10z"/>
        <path d="M766 102 c-3 -5 4 -19 16 -32 l22 -23 -32 6 c-18 4 -32 3 -32 -2 0
        -5 17 -12 37 -16 21 -4 41 -12 44 -17 5 -8 21 -7 52 3 50 14 52 24 9 34 -15 3
        -40 17 -55 30 -27 25 -52 32 -61 17z"/>
        <path d="M890 10 c-13 -8 -12 -10 3 -10 9 0 17 5 17 10 0 12 -1 12 -20 0z"/>
    </g>
    <style>
        svg { fill: #FFF; }

        @media (prefers-color-scheme: dark) {
            svg { fill: #000; }
        }
    </style>
</svg>